<svg width="40" height="40" viewBox="0 0 40 40" fill="none" xmlns="http://www.w3.org/2000/svg">
<mask id="mask0_2_27" style="mask-type:alpha" maskUnits="userSpaceOnUse" x="0" y="0" width="40" height="40">
<rect width="40" height="40" fill="#D9D9D9"/>
</mask>
<g mask="url(#mask0_2_27)">
<path d="M20 36.6667C17.6944 36.6667 15.5278 36.2292 13.5 35.3542C11.4722 34.4792 9.70833 33.2917 8.20833 31.7917C6.70833 30.2917 5.52083 28.5278 4.64583 26.5C3.77083 24.4723 3.33333 22.3056 3.33333 20C3.33333 17.6945 3.77083 15.5278 4.64583 13.5C5.52083 11.4723 6.70833 9.70837 8.20833 8.20837C9.70833 6.70837 11.4722 5.52087 13.5 4.64587C15.5278 3.77087 17.6944 3.33337 20 3.33337C22.3056 3.33337 24.4722 3.77087 26.5 4.64587C28.5278 5.52087 30.2917 6.70837 31.7917 8.20837C33.2917 9.70837 34.4792 11.4723 35.3542 13.5C36.2292 15.5278 36.6667 17.6945 36.6667 20C36.6667 22.3056 36.2292 24.4723 35.3542 26.5C34.4792 28.5278 33.2917 30.2917 31.7917 31.7917C30.2917 33.2917 28.5278 34.4792 26.5 35.3542C24.4722 36.2292 22.3056 36.6667 20 36.6667ZM20 33.3334C23.7222 33.3334 26.875 32.0417 29.4583 29.4584C32.0417 26.875 33.3333 23.7223 33.3333 20C33.3333 16.2778 32.0417 13.125 29.4583 10.5417C26.875 7.95837 23.7222 6.66671 20 6.66671C16.2778 6.66671 13.125 7.95837 10.5417 10.5417C7.95833 13.125 6.66667 16.2778 6.66667 20C6.66667 23.7223 7.95833 26.875 10.5417 29.4584C13.125 32.0417 16.2778 33.3334 20 33.3334ZM20 30C17.2222 30 14.8611 29.0278 12.9167 27.0834C10.9722 25.1389 10 22.7778 10 20C10 17.2223 10.9722 14.8612 12.9167 12.9167C14.8611 10.9723 17.2222 10 20 10C22.7778 10 25.1389 10.9723 27.0833 12.9167C29.0278 14.8612 30 17.2223 30 20C30 22.7778 29.0278 25.1389 27.0833 27.0834C25.1389 29.0278 22.7778 30 20 30ZM20 26.6667C21.8333 26.6667 23.4028 26.0139 24.7083 24.7084C26.0139 23.4028 26.6667 21.8334 26.6667 20C26.6667 18.1667 26.0139 16.5973 24.7083 15.2917C23.4028 13.9862 21.8333 13.3334 20 13.3334C18.1667 13.3334 16.5972 13.9862 15.2917 15.2917C13.9861 16.5973 13.3333 18.1667 13.3333 20C13.3333 21.8334 13.9861 23.4028 15.2917 24.7084C16.5972 26.0139 18.1667 26.6667 20 26.6667ZM20 23.3334C19.0833 23.3334 18.2986 23.007 17.6458 22.3542C16.9931 21.7014 16.6667 20.9167 16.6667 20C16.6667 19.0834 16.9931 18.2987 17.6458 17.6459C18.2986 16.9931 19.0833 16.6667 20 16.6667C20.9167 16.6667 21.7014 16.9931 22.3542 17.6459C23.0069 18.2987 23.3333 19.0834 23.3333 20C23.3333 20.9167 23.0069 21.7014 22.3542 22.3542C21.7014 23.007 20.9167 23.3334 20 23.3334Z" fill="#474AFF"/>
</g>
</svg>
