<svg width="26" height="26" viewBox="0 0 26 26" fill="none" xmlns="http://www.w3.org/2000/svg">
<mask id="mask0_46_14" style="mask-type:alpha" maskUnits="userSpaceOnUse" x="0" y="0" width="26" height="26">
<rect width="26" height="26" fill="#D9D9D9"/>
</mask>
<g mask="url(#mask0_46_14)">
<path d="M5.41667 8.66666H20.5833V6.49999H5.41667V8.66666ZM5.41667 23.8333C4.82083 23.8333 4.31076 23.6212 3.88646 23.1969C3.46215 22.7726 3.25 22.2625 3.25 21.6667V6.49999C3.25 5.90416 3.46215 5.39409 3.88646 4.96978C4.31076 4.54548 4.82083 4.33332 5.41667 4.33332H6.5V2.16666H8.66667V4.33332H17.3333V2.16666H19.5V4.33332H20.5833C21.1792 4.33332 21.6892 4.54548 22.1135 4.96978C22.5378 5.39409 22.75 5.90416 22.75 6.49999V12.6479C22.4069 12.4854 22.0549 12.35 21.6937 12.2417C21.3326 12.1333 20.9625 12.0521 20.5833 11.9979V10.8333H5.41667V21.6667H12.2417C12.3681 22.0639 12.517 22.443 12.6885 22.8042C12.8601 23.1653 13.0632 23.5083 13.2979 23.8333H5.41667ZM19.5 24.9167C18.0014 24.9167 16.724 24.3885 15.6677 23.3323C14.6115 22.276 14.0833 20.9986 14.0833 19.5C14.0833 18.0014 14.6115 16.7239 15.6677 15.6677C16.724 14.6114 18.0014 14.0833 19.5 14.0833C20.9986 14.0833 22.276 14.6114 23.3323 15.6677C24.3885 16.7239 24.9167 18.0014 24.9167 19.5C24.9167 20.9986 24.3885 22.276 23.3323 23.3323C22.276 24.3885 20.9986 24.9167 19.5 24.9167ZM21.3146 22.0729L22.0729 21.3146L20.0417 19.2833V16.25H18.9583V19.7167L21.3146 22.0729Z" fill="white"/>
</g>
</svg>
