<svg width="18" height="18" viewBox="0 0 18 18" fill="none" xmlns="http://www.w3.org/2000/svg">
<path d="M15.5594 14.8443C13.8486 16.5552 11.7994 17.4169 9.41196 17.4297C7.02449 17.4425 4.97536 16.5935 3.26455 14.8827L3.1305 14.7486L3.1305 17.1999L0.985606 17.1999L0.985605 11.0716L7.11386 11.0716L7.11386 13.2165L4.66256 13.2165L4.79662 13.3506C6.07334 14.6273 7.60859 15.2625 9.40239 15.2561C11.1962 15.2497 12.7378 14.6018 14.0273 13.3123C14.3593 12.9803 14.6465 12.6165 14.8891 12.2207C15.1317 11.8249 15.3296 11.3972 15.4828 10.9376L17.7809 10.9376C17.5766 11.7036 17.2893 12.4122 16.9191 13.0633C16.5488 13.7145 16.0956 14.3081 15.5594 14.8443ZM17.8 6.43714L11.6718 6.43714L11.6718 4.29225H14.1231L13.989 4.1582C12.7123 2.88148 11.177 2.24631 9.38323 2.25269C7.58944 2.25908 6.0478 2.90701 4.75831 4.1965C4.42637 4.52845 4.13911 4.89231 3.89653 5.2881C3.65395 5.68388 3.45606 6.11158 3.30285 6.5712L1.00476 6.5712C1.20903 5.80517 1.49629 5.09659 1.86654 4.44546C2.23679 3.79433 2.69003 3.20066 3.22625 2.66444C4.93706 0.95363 6.98619 0.0918432 9.37366 0.0790765C11.7611 0.0663097 13.8103 0.915328 15.5211 2.62613L15.6551 2.76019V0.308886H17.8L17.8 6.43714Z" fill="white"/>
</svg>
