<svg width="20" height="19" viewBox="0 0 20 19" fill="none" xmlns="http://www.w3.org/2000/svg">
<path d="M2.54175 18.8127C1.99175 18.8127 1.52091 18.6169 1.12925 18.2252C0.737581 17.8335 0.541748 17.3627 0.541748 16.8127V2.81268C0.541748 2.26268 0.737581 1.79185 1.12925 1.40018C1.52091 1.00852 1.99175 0.812683 2.54175 0.812683H16.5417C17.0917 0.812683 17.5626 1.00852 17.9542 1.40018C18.3459 1.79185 18.5417 2.26268 18.5417 2.81268V5.31268H16.5417V2.81268H2.54175V16.8127H16.5417V14.3127H18.5417V16.8127C18.5417 17.3627 18.3459 17.8335 17.9542 18.2252C17.5626 18.6169 17.0917 18.8127 16.5417 18.8127H2.54175ZM10.5417 14.8127C9.99175 14.8127 9.52092 14.6169 9.12925 14.2252C8.73758 13.8335 8.54175 13.3627 8.54175 12.8127V6.81268C8.54175 6.26268 8.73758 5.79185 9.12925 5.40018C9.52092 5.00852 9.99175 4.81268 10.5417 4.81268H17.5417C18.0917 4.81268 18.5626 5.00852 18.9542 5.40018C19.3459 5.79185 19.5417 6.26268 19.5417 6.81268V12.8127C19.5417 13.3627 19.3459 13.8335 18.9542 14.2252C18.5626 14.6169 18.0917 14.8127 17.5417 14.8127H10.5417ZM17.5417 12.8127V6.81268H10.5417V12.8127H17.5417ZM13.5417 11.3127C13.9584 11.3127 14.3126 11.1668 14.6042 10.8752C14.8959 10.5835 15.0417 10.2293 15.0417 9.81268C15.0417 9.39602 14.8959 9.04185 14.6042 8.75018C14.3126 8.45852 13.9584 8.31268 13.5417 8.31268C13.1251 8.31268 12.7709 8.45852 12.4792 8.75018C12.1876 9.04185 12.0417 9.39602 12.0417 9.81268C12.0417 10.2293 12.1876 10.5835 12.4792 10.8752C12.7709 11.1668 13.1251 11.3127 13.5417 11.3127Z" fill="white"/>
</svg>
