<svg width="22" height="22" viewBox="0 0 22 22" fill="none" xmlns="http://www.w3.org/2000/svg">
<path d="M11 21.8333C9.50138 21.8333 8.09304 21.5489 6.77499 20.9802C5.45693 20.4114 4.31041 19.6396 3.33541 18.6646C2.36041 17.6896 1.58853 16.543 1.01978 15.225C0.451031 13.9069 0.166656 12.4986 0.166656 11C0.166656 9.50138 0.451031 8.09304 1.01978 6.77499C1.58853 5.45693 2.36041 4.31041 3.33541 3.33541C4.31041 2.36041 5.45693 1.58853 6.77499 1.01978C8.09304 0.451031 9.50138 0.166656 11 0.166656C12.4986 0.166656 13.9069 0.451031 15.225 1.01978C16.543 1.58853 17.6896 2.36041 18.6646 3.33541C19.6396 4.31041 20.4114 5.45693 20.9802 6.77499C21.5489 8.09304 21.8333 9.50138 21.8333 11C21.8333 12.4986 21.5489 13.9069 20.9802 15.225C20.4114 16.543 19.6396 17.6896 18.6646 18.6646C17.6896 19.6396 16.543 20.4114 15.225 20.9802C13.9069 21.5489 12.4986 21.8333 11 21.8333ZM11 19.6667C13.4194 19.6667 15.4687 18.8271 17.1479 17.1479C18.8271 15.4687 19.6667 13.4194 19.6667 11C19.6667 8.58054 18.8271 6.53124 17.1479 4.85207C15.4687 3.17291 13.4194 2.33332 11 2.33332C8.58054 2.33332 6.53124 3.17291 4.85207 4.85207C3.17291 6.53124 2.33332 8.58054 2.33332 11C2.33332 13.4194 3.17291 15.4687 4.85207 17.1479C6.53124 18.8271 8.58054 19.6667 11 19.6667ZM11 17.5C9.19443 17.5 7.65971 16.868 6.39582 15.6042C5.13193 14.3403 4.49999 12.8055 4.49999 11C4.49999 9.19443 5.13193 7.65971 6.39582 6.39582C7.65971 5.13193 9.19443 4.49999 11 4.49999C12.8055 4.49999 14.3403 5.13193 15.6042 6.39582C16.868 7.65971 17.5 9.19443 17.5 11C17.5 12.8055 16.868 14.3403 15.6042 15.6042C14.3403 16.868 12.8055 17.5 11 17.5ZM11 15.3333C12.1917 15.3333 13.2118 14.909 14.0604 14.0604C14.909 13.2118 15.3333 12.1917 15.3333 11C15.3333 9.80832 14.909 8.78818 14.0604 7.93957C13.2118 7.09096 12.1917 6.66666 11 6.66666C9.80832 6.66666 8.78818 7.09096 7.93957 7.93957C7.09096 8.78818 6.66666 9.80832 6.66666 11C6.66666 12.1917 7.09096 13.2118 7.93957 14.0604C8.78818 14.909 9.80832 15.3333 11 15.3333ZM11 13.1667C10.4042 13.1667 9.89409 12.9545 9.46978 12.5302C9.04548 12.1059 8.83332 11.5958 8.83332 11C8.83332 10.4042 9.04548 9.89409 9.46978 9.46978C9.89409 9.04548 10.4042 8.83332 11 8.83332C11.5958 8.83332 12.1059 9.04548 12.5302 9.46978C12.9545 9.89409 13.1667 10.4042 13.1667 11C13.1667 11.5958 12.9545 12.1059 12.5302 12.5302C12.1059 12.9545 11.5958 13.1667 11 13.1667Z" fill="white"/>
</svg>
